# xmcd
#
# Track frame offsets: 
#        150
#        34715
#        54335
#        71855
#        103497
#        126912
#        153727
#
# Disc length: 2326 seconds
#
# Revision: 0
# Processed by: cddbd v1.5.2PL0 Copyright (c) Steve Scherf et al.
# Submitted via: ExactAudioCopy v0.99pb5
#
DISCID=66091407
DTITLE=Albert Collins And The Icebreakers - Live In Japan
DYEAR=1984
DGENRE=
TTITLE0=Listen Here!
TTITLE1=Tired Man
TTITLE2=If Trouble Was Money
TTITLE3=Jealous Man
TTITLE4=Stormy Monday
TTITLE5=Skatin'
TTITLE6=All About My Girl
EXTD=
EXTT0=
EXTT1=
EXTT2=
EXTT3=
EXTT4=
EXTT5=
EXTT6=
PLAYORDER=
